PathFileType	4	(X/Y/Z)	C:\Users\Willi\SynologyDrive\Deimel_MSc_Deadlift\Athlete_03\Athlete_3_22_07_06\dl_75\marker_experimental.trc
DataRate	CameraRate	NumFrames	NumMarkers	Units	OrigDataRate	OrigDataStartFrame	OrigNumFrames
200.000000	200.000000	4	59	mm	200.000000	1784	2855
Frame#	Time	BR			GLAB			RFHD			LFHD			C7			T6			SPINMOL			SPINM2			SPINM3			T12			BELTOL			BELT2			BELT3			SACROL			SACR2			SACR3			LTHOL			LTH2			LTH3			LSHAOL			LSHA2			LSHA3			LHEE			LTOE			LM5			RTHOL			RTH2			RTH3			RSHAOL			RSHA2			RSHA3			RHEE			RTOE			RM5			STRN			XIPH			LACR			LUAOL			LUA2			LUA3			LLAOL			LLA2			LLA3			LWRU			RACR			RUAOL			RUA2			RUA3			RLAOL			RLA2			RLA3			RWRU			BL			USERMO0			USERMO1			USERMO2			USERMO3			USERMO4			USERMO5			
		X1	Y1	Z1	X2	Y2	Z2	X3	Y3	Z3	X4	Y4	Z4	X5	Y5	Z5	X6	Y6	Z6	X7	Y7	Z7	X8	Y8	Z8	X9	Y9	Z9	X10	Y10	Z10	X11	Y11	Z11	X12	Y12	Z12	X13	Y13	Z13	X14	Y14	Z14	X15	Y15	Z15	X16	Y16	Z16	X17	Y17	Z17	X18	Y18	Z18	X19	Y19	Z19	X20	Y20	Z20	X21	Y21	Z21	X22	Y22	Z22	X23	Y23	Z23	X24	Y24	Z24	X25	Y25	Z25	X26	Y26	Z26	X27	Y27	Z27	X28	Y28	Z28	X29	Y29	Z29	X30	Y30	Z30	X31	Y31	Z31	X32	Y32	Z32	X33	Y33	Z33	X34	Y34	Z34	X35	Y35	Z35	X36	Y36	Z36	X37	Y37	Z37	X38	Y38	Z38	X39	Y39	Z39	X40	Y40	Z40	X41	Y41	Z41	X42	Y42	Z42	X43	Y43	Z43	X44	Y44	Z44	X45	Y45	Z45	X46	Y46	Z46	X47	Y47	Z47	X48	Y48	Z48	X49	Y49	Z49	X50	Y50	Z50	X51	Y51	Z51	X52	Y52	Z52	X53	Y53	Z53	X54	Y54	Z54	X55	Y55	Z55	X56	Y56	Z56	X57	Y57	Z57	X58	Y58	Z58	X59	Y59	Z59	

1785	8.92	201.0799102783203	470.2315979003906	-104.3719406127929	487.5518493652344	1361.718994140625	-1193.1982421875	437.0751037597656	1395.610595703125	-1114.958251953125	433.1892700195312	1396.91455078125	-1272.255615234375	245.6054382324219	1334.97998046875	-1191.161376953125	80.03488159179688	1230.638427734375	-1201.905151367188	57.02063369750977	1213.850341796875	-1206.395263671875	10.637619972229	1175.7001953125	-1153.939208984375	11.2796745300293	1172.25341796875	-1203.457275390625	-9.092938423156738	1140.544067382812	-1208.420654296875	-43.23874282836914	1142.372436523438	-1207.684326171875	-84.55582427978516	1097.799072265625	-1155.717163085938	-88.68814849853516	1099.963623046875	-1205.670043945312	-146.0357818603516	999.4611816406251	-1232.294189453125	-136.6466369628906	1005.536010742188	-1182.118041992188	-179.2649078369141	956.5915527343751	-1193.956909179688	-6.002809047698975	739.5817871093751	-1437.124145507812	-26.41317749023438	664.8027954101564	-1417.30810546875	17.1566219329834	682.2211914062501	-1436.06982421875	61.88372802734375	338.630340576172	-1427.850708007812	25.95328140258789	270.1356811523439	-1411.376342773438	73.50992584228516	278.5258178710939	-1418.15380859375	2.409289121627808	66.98887634277352	-1318.784912109375	213.1807556152344	73.3038864135743	-1330.770629882812	166.13916015625	53.84591674804696	-1436.27685546875	0.5999810099601746	705.4577026367189	-991.2645874023438	64.563720703125	659.3787231445314	-978.2145385742188	18.66481781005859	645.8619995117189	-993.23095703125	49.39782333374023	331.2810058593751	-999.3676147460938	93.25516510009766	265.7143554687501	-1006.634582519531	44.13749694824219	271.9621276855469	-1014.22021484375	0.9681903719902039	64.85163879394538	-1114.868286132812	212.1913146972656	67.30932617187507	-1093.417602539062	165.9205780029297	66.25609588623053	-996.5307006835938	317.8209838867188	1180.879272460938	-1200.798828125	274.2399291992188	1027.3203125	-1202.621215820312	272.7977600097656	1209.569580078125	-1405.727661132812	235.8551177978516	1066.981323242188	-1467.087890625	201.4633483886719	1013.681701660156	-1486.630737304688	248.4683990478516	1002.53076171875	-1468.244384765625	227.7113952636719	779.1542358398439	-1470.27099609375	204.9490966796875	718.5050048828126	-1481.253051757812	237.8369293212891	721.1201171875001	-1444.253784179688	213.4561920166016	626.2482299804689	-1463.810546875	277.0438537597656	1194.276000976562	-1000.233642578125	254.7033996582031	1014.205627441406	-975.2347412109374	265.5061950683594	956.4821777343751	-1005.771362304687	244.302978515625	950.1979980468751	-960.4081420898436	238.5548095703125	753.2037353515626	-976.0851440429688	244.5032653808594	697.7854614257814	-1008.777770996094	227.0572204589844	691.9020996093751	-961.0711669921875	219.1201171875	614.7396850585939	-962.259033203125	149.6017608642578	523.4833984375001	-2325.310546875	0.138826996088028	0.2630450129508972	-0.3827869892120361	0.3572440147399902	2.801980018615723	-0.2785669863224028	2.854320049285889	0.1438570022583008	-0.07677660137414931	0.01552500016987324	0.2394849956035614	-0.03146300092339514	0.2890290021896362	0.3139930069446564	-0.1224730014801025	0.04864209890365601	0	0	
1786	8.925000000000001	201.0921325683594	473.3696899414062	-104.349250793457	485.8397827148438	1364.900268554688	-1193.44482421875	435.5189819335938	1398.950805664062	-1115.165771484375	431.4911804199219	1400.18359375	-1272.47021484375	243.7319793701172	1337.926635742188	-1191.250366210938	78.79339599609375	1232.315185546875	-1202.031372070312	55.88627243041992	1215.35107421875	-1206.53955078125	9.776402473449707	1176.848754882812	-1154.108154296875	10.48649120330811	1173.396850585938	-1203.626098632812	-9.669668197631836	1141.515991210938	-1208.570556640625	-43.84409713745117	1143.094116210938	-1207.848266601562	-84.81276702880859	1098.196899414062	-1155.88232421875	-88.96861267089844	1100.345336914062	-1205.833129882812	-145.5334320068359	999.5984497070314	-1232.505737304688	-136.1527862548828	1005.693115234375	-1182.327026367188	-178.5995330810547	956.5997924804689	-1194.1611328125	-5.415453433990479	739.9870605468751	-1437.126220703125	-26.04661560058594	665.2986450195314	-1417.206176757812	17.54441833496094	682.5433959960939	-1436.069702148438	61.67604064941406	338.6690673828126	-1427.776611328125	25.79092025756836	270.1587829589845	-1411.25634765625	73.34217834472656	278.5731506347657	-1418.110107421875	2.442643404006958	67.01450347900399	-1318.746215820312	213.1965637207031	73.30054473876962	-1330.781982421875	166.1345977783203	53.83156204223641	-1436.288696289062	1.042632102966309	705.8670654296876	-991.56396484375	64.76044464111328	659.4972534179689	-978.34423828125	18.86234474182129	646.1985473632814	-993.5484619140625	49.17952728271484	331.3448486328126	-999.5540771484375	93.07672882080078	265.7951660156251	-1006.730224609375	43.96646881103516	272.0216674804688	-1014.393676757812	0.9901713728904724	64.86997985839851	-1114.906982421875	212.1951446533203	67.30364227294929	-1093.408081054688	165.9174957275391	66.2566757202149	-996.528076171875	316.8796997070312	1184.264282226562	-1200.858764648438	274.4456481933594	1030.381469726562	-1202.743530273438	271.4838562011719	1212.697021484375	-1405.84423828125	235.1847991943359	1070.028564453125	-1467.21923828125	201.1053009033203	1016.484252929688	-1486.712280273438	248.2353363037109	1005.656311035156	-1468.438598632812	227.6475830078125	782.0159912109376	-1470.184692382812	204.9336700439453	721.3620605468751	-1481.21875	237.7556610107422	723.9810180664064	-1444.164916992188	213.4077606201172	629.0898437500001	-1463.776489257812	275.7448120117188	1197.504272460938	-1000.201843261719	254.0087127685547	1017.252075195313	-975.1909790039061	264.9920349121094	959.5652465820314	-1005.725891113281	243.7461090087891	953.2180786132814	-960.3970336914061	238.3423461914062	756.1724853515626	-976.1157836914062	244.3048400878906	700.7789306640626	-1008.815795898438	226.9181213378906	694.8630371093751	-961.095458984375	219.0238647460938	617.6750488281251	-962.2814331054688	149.4644012451172	526.1621704101564	-2325.296630859375	0.1399029940366745	0.2680079936981201	-0.3890820145606995	0.3566640019416809	2.804529905319214	-0.2811720073223112	2.853470087051392	0.1454769968986511	-0.07783859968185423	0.01552390027791262	0.2417020052671432	-0.03643560037016867	0.2894760072231293	0.3061609864234924	-0.1253490000963211	0.04709289968013763	0	0	
1787	8.93	201.1011352539062	476.52587890625	-104.3237686157226	484.0883483886719	1368.056762695312	-1193.682983398438	433.9271545410156	1402.275756835938	-1115.36767578125	429.7651977539062	1403.43896484375	-1272.67919921875	241.8041076660156	1340.87548828125	-1191.337036132812	77.51883697509766	1233.9765625	-1202.159301757812	54.72442626953125	1216.834228515625	-1206.683471679688	8.89569091796875	1177.975341796875	-1154.276123046875	9.673638343811035	1174.52099609375	-1203.79443359375	-10.25597953796387	1142.470947265625	-1208.719116210938	-44.4610710144043	1143.793334960938	-1208.01025390625	-85.07054138183594	1098.568725585938	-1156.04638671875	-89.25273895263672	1100.702270507812	-1205.99462890625	-145.0235595703125	999.7148437500001	-1232.723999023438	-135.6515502929688	1005.82763671875	-1182.542358398438	-177.9250640869141	956.5848999023439	-1194.375366210938	-4.809814929962158	740.3896484375001	-1437.1279296875	-25.66095161437988	665.7919921875001	-1417.104248046875	17.95159721374512	682.8649291992189	-1436.066772460938	61.47265625	338.7078247070314	-1427.705322265625	25.63743209838867	270.185028076172	-1411.136962890625	73.18431854248047	278.6221923828126	-1418.06396484375	2.47735333442688	67.04089355468759	-1318.7080078125	213.2131042480469	73.29724121093759	-1330.793701171875	166.1298522949219	53.81747436523446	-1436.299926757812	1.50579297542572	706.2656860351564	-991.8740844726562	64.97877502441406	659.6096191406251	-978.486328125	19.08402442932129	646.5265502929689	-993.879638671875	48.97560119628906	331.4107055664063	-999.7489624023438	92.90840911865234	265.8744506835938	-1006.834655761719	43.80716705322266	272.0830078125001	-1014.578491210938	1.013063907623291	64.88668823242195	-1114.947631835938	212.1971588134766	67.29715728759773	-1093.398315429688	165.9145660400391	66.25840759277349	-996.5264282226562	315.902587890625	1187.662475585938	-1200.920654296875	274.6337890625	1033.459716796875	-1202.852661132812	270.1296997070312	1215.841796875	-1405.95947265625	234.5027313232422	1073.081420898438	-1467.34423828125	200.7443695068359	1019.286193847656	-1486.777465820312	247.9984741210938	1008.791320800781	-1468.6142578125	227.6012725830078	784.8823242187501	-1470.066772460938	204.9435119628906	724.2292480468751	-1481.168212890625	237.6898040771484	726.8491821289064	-1444.050415039062	213.3734893798828	631.9391479492189	-1463.729248046875	274.4058532714844	1200.7421875	-1000.165588378906	253.2880249023438	1020.307312011719	-975.1416015624999	264.4578857421875	962.6585083007814	-1005.672546386719	243.1676940917969	956.2482299804689	-960.3789672851561	238.1228637695312	759.1497802734376	-976.140625	244.0989837646484	703.7817382812501	-1008.848693847656	226.7725982666016	697.8322753906251	-961.1137084960938	218.9230499267578	620.6182861328126	-962.2997436523438	149.3252410888672	528.8449096679689	-2325.279541015625	0.1412429958581924	0.2724640071392059	-0.3956269919872284	0.3558749854564667	2.807110071182251	-0.283423990011215	2.85260009765625	0.1480730026960373	-0.07916829735040663	0.01547439955174923	0.2435130029916763	-0.04293740168213843	0.2900440096855164	0.297650009393692	-0.1284089982509613	0.04576940089464188	0	0	
1788	8.935	201.1068572998047	479.6993103027344	-104.2955780029297	482.2975158691406	1371.185302734375	-1193.911254882812	432.3000183105469	1405.583618164062	-1115.562744140625	428.0117492675781	1406.67724609375	-1272.881591796875	239.8214721679688	1343.825927734375	-1191.421630859375	76.21162414550781	1235.621826171875	-1202.287475585938	53.53543472290039	1218.299926757812	-1206.825927734375	7.996017456054688	1179.080200195312	-1154.441772460938	8.841301918029785	1175.626220703125	-1203.960571289062	-10.85111045837402	1143.409057617188	-1208.864135742188	-45.08930969238281	1144.470825195312	-1208.16748046875	-85.32828521728516	1098.915161132812	-1156.206665039062	-89.53988647460938	1101.034790039062	-1206.151733398438	-144.5057983398438	999.8122558593751	-1232.94482421875	-135.1415100097656	1005.941101074219	-1182.759887695312	-177.2409820556641	956.5493164062501	-1194.5947265625	-4.191190242767334	740.7888793945314	-1437.129272460938	-25.26084899902344	666.2823486328126	-1417.000854492188	18.37267303466797	683.1849975585939	-1436.060913085938	61.26720809936523	338.7461547851564	-1427.637329101562	25.48874092102051	270.2140197753907	-1411.015502929688	73.03165435791016	278.672576904297	-1418.015014648438	2.512829780578613	67.06729125976571	-1318.669921875	213.2298583984375	73.29431915283212	-1330.806396484375	166.1248474121094	53.80374526977548	-1436.310668945312	1.992026925086975	706.6541748046876	-992.1943969726562	65.22178649902344	659.7164306640626	-978.6433715820312	19.33212280273438	646.8464965820314	-994.2247924804688	48.78766632080078	331.4785766601563	-999.9534912109375	92.75182342529297	265.9522705078126	-1006.94970703125	43.66093063354492	272.1460266113282	-1014.774963378906	1.036819934844971	64.90144348144538	-1114.990234375	212.1977996826172	67.29000091552741	-1093.388793945312	165.9119567871094	66.26152801513678	-996.5260620117188	314.8891296386719	1191.072631835938	-1200.984130859375	274.8034057617188	1036.55419921875	-1202.9521484375	268.734619140625	1219.002685546875	-1406.073120117188	233.8043212890625	1076.138549804688	-1467.46142578125	200.3737335205078	1022.087951660156	-1486.82421875	247.7503509521484	1011.934509277344	-1468.769287109375	227.5671844482422	787.7543334960939	-1469.915161132812	204.9742126464844	727.1078491210939	-1481.10009765625	237.6355590820312	729.7255859375001	-1443.909912109375	213.3512115478516	634.7973022460939	-1463.668334960938	273.0285034179688	1203.989379882812	-1000.126342773437	252.5441589355469	1023.371826171875	-975.0866088867186	263.9064025878906	965.7623291015626	-1005.611145019531	242.5711975097656	959.2888183593751	-960.3534545898436	237.8977813720703	762.1354980468751	-976.1588745117188	243.8873901367188	706.7936401367189	-1008.876037597656	226.6216888427734	700.8097534179689	-961.1253662109375	218.8180541992188	623.5691528320314	-962.3132934570312	149.1847076416016	531.5311889648439	-2325.259521484375	0.1427309960126877	0.2761380076408386	-0.4021829962730408	0.3549560010433197	2.809730052947998	-0.2852050065994261	2.851710081100464	0.1513839960098267	-0.08065470308065413	0.01536399964243174	0.2449059933423996	-0.05117230117321013	0.2906970083713531	0.2885929942131042	-0.1316139996051788	0.04466789960861206	0	0	
